# xmcd
#
# Track frame offsets: 
#        150
#        17079
#        38311
#        56605
#
# Disc length: 949 seconds
#
# Revision: 0
# Processed by: cddbd v1.5.2PL0 Copyright (c) Steve Scherf et al.
# Submitted via: ExactAudioCopyFreeDBPlugin 1.0
#
DISCID=2303b304
DTITLE=Lucero - Texas and Tennessee
DYEAR=2013
DGENRE=Alternative
TTITLE0=Texas and Tennessee
TTITLE1=Union Pacific Line
TTITLE2=Breathless Love
TTITLE3=Other Side Of Lonesome
EXTD=
EXTT0=
EXTT1=
EXTT2=
EXTT3=
PLAYORDER=
